<svg width="156" height="40" viewBox="0 0 156 40" fill="none" xmlns="http://www.w3.org/2000/svg">
<path d="M57.5 19.025L55.325 21.2H53.775V29.825H56.85V32H53.475L51.3 29.825V21.2H48.225L50.4 19.025H51.3V17.2L53.775 14.725V19.025H57.5ZM61.8287 16.9H59.3537V14.425H61.8287V16.9ZM61.8287 32H59.3537V20.925L61.8287 18.425V32ZM74.4658 28.55L70.9908 32H68.9658L65.5158 28.55V18.425L67.9658 20.9V28.15L69.9908 30.1L71.9908 28.15V20.9L74.4658 18.425V28.55ZM86.852 32H80.077L77.927 29.825V21.2L80.077 19.025H84.702L86.852 21.2V25.525L84.702 27.675H80.702L82.902 25.525H84.402V21.2H80.402V29.825H86.852V32ZM107.935 28.275L104.26 32H101.835L98.9846 29.1L96.1596 32H93.7096L90.0346 28.275V14.725H92.5096V27.575L94.7596 29.9H95.4346L97.7346 27.575V14.725H100.21V27.575L102.51 29.9H103.21L105.46 27.65V14.725H107.935V28.275ZM120.291 32H117.816V30.15L115.966 32H113.491L111.341 29.825V25.525L113.491 23.35H117.566L115.516 25.5H113.791V29.825H117.816V21.2H111.016L112.866 19.025H118.141L120.291 21.2V32ZM133.091 23.35L130.616 25.825V21.2H126.941V32H124.466V19.025H126.941V20.9L128.741 19.025H130.941L133.091 21.2V23.35ZM144.713 32H137.938L135.788 29.825V21.2L137.938 19.025H142.563L144.713 21.2V25.525L142.563 27.675H138.563L140.763 25.525H142.263V21.2H138.263V29.825H144.713V32Z" fill="#F9F9FA"/>
<path d="M13.1 31H10.65V24.525H4.775V31H2.3V15.9L4.475 13.725H13.1V31ZM12.2 15.9H4.775V24.225L6.65 22.35H10.65V17.45L12.2 15.9Z" fill="#F9F9FA"/>
<path d="M36.8821 11.2972C38.2028 11.2983 39.5085 11.5566 40.714 12.055C41.9194 12.5535 42.9975 13.281 43.878 14.1901L46.6346 11.8951C44.8701 10.083 42.5552 8.80419 39.9919 8.22552C37.4286 7.6468 34.736 7.7951 32.2652 8.65104C29.7946 9.50698 27.6606 11.0308 26.1418 13.0236C24.623 15.0165 23.79 17.3859 23.7514 19.8226C23.7128 22.2593 24.4704 24.6502 25.9253 26.6832C27.3803 28.7163 29.465 30.2972 31.9076 31.2195C34.35 32.1418 37.0369 32.3628 39.6174 31.8537C42.198 31.3445 44.5524 30.1288 46.3736 28.3653L43.6796 26.0027C42.6064 27.0392 41.2719 27.8138 39.7954 28.2575C38.3189 28.7012 36.7462 28.8001 35.2182 28.5453C33.6901 28.2906 32.2543 27.6902 31.0389 26.7977C29.8236 25.9052 28.8666 24.7485 28.2536 23.431C27.6406 22.1135 27.3906 20.6762 27.526 19.2478C27.6615 17.8192 28.1781 16.4439 29.0297 15.2449C29.8813 14.0458 31.0414 13.0603 32.4062 12.3765C33.771 11.6926 35.298 11.3318 36.8508 11.3261L36.8821 11.2972Z" fill="#F9F9FA"/>
<path d="M24.4231 8.42982L21.7034 6.06055C19.5789 7.88794 17.893 10.0601 16.7426 12.4522C15.5922 14.8444 15 17.4094 15 19.9999C15 22.5905 15.5922 25.1555 16.7426 27.5476C17.893 29.9398 19.5789 32.1119 21.7034 33.9393L24.4231 31.5701C22.6517 30.0571 21.2454 28.2554 20.2855 26.2693C19.3257 24.2833 18.8315 22.1523 18.8315 19.9999C18.8315 17.8476 19.3257 15.7166 20.2855 13.7305C21.2454 11.7444 22.6517 9.94273 24.4231 8.42982Z" fill="#F9F9FA"/>
<path d="M50 3.92444C46.2918 1.36983 41.811 -0.00519736 37.2115 1.4763e-05V3.43995C41.0067 3.43668 44.7046 4.56674 47.7706 6.66668L50 3.92444Z" fill="#F9F9FA"/>
<path d="M37.2115 36.6064V39.9999C41.514 40.0043 45.7244 38.8748 49.3269 36.7498L47.2107 33.9393C44.2338 35.6842 40.7601 36.6107 37.2115 36.6064Z" fill="#F9F9FA"/>
<path d="M37.2116 32.4151C34.297 32.4133 31.4534 31.6285 29.0657 30.1667C26.678 28.705 24.8615 26.6369 23.862 24.2424L20.3846 25.6547C21.6941 28.6283 24.0028 31.1852 27.0065 32.9886C30.0102 34.7921 33.5681 35.7574 37.2116 35.7576V32.4151Z" fill="#F9F9FA"/>
<path d="M23.4249 19.3939C23.6507 16.2058 25.201 13.2151 27.7613 11.0287C30.3217 8.84243 33.7002 7.62413 37.2115 7.62104V4.24243C32.7149 4.24231 28.3904 5.81516 25.1329 8.63546C21.8754 11.4558 19.9343 15.3077 19.7115 19.3939H23.4249Z" fill="#F9F9FA"/>
</svg>
