<svg width="232" height="67" viewBox="0 0 232 67" fill="none" xmlns="http://www.w3.org/2000/svg">
<path d="M51 1H3V49H51V1Z" fill="white"/>
<g opacity="0.1">
<path opacity="0.1" d="M51 47.8635V48.9962H49.8673" stroke="#FAFBFF" stroke-miterlimit="10"/>
<path opacity="0.1" d="M47.6887 48.9962H5.22382" stroke="#FAFBFF" stroke-miterlimit="10" stroke-dasharray="5.77 5.77"/>
<path opacity="0.1" d="M4.1327 48.9962H3V47.8635" stroke="#FAFBFF" stroke-miterlimit="10"/>
<path opacity="0.1" d="M3 45.685V3.22015" stroke="#FAFBFF" stroke-miterlimit="10" stroke-dasharray="5.77 5.77"/>
<path opacity="0.1" d="M3 2.1327V1H4.1327" stroke="#FAFBFF" stroke-miterlimit="10"/>
<path opacity="0.1" d="M6.31128 1H48.7762" stroke="#FAFBFF" stroke-miterlimit="10" stroke-dasharray="5.77 5.77"/>
<path opacity="0.1" d="M49.8673 1H51V2.1327" stroke="#FAFBFF" stroke-miterlimit="10"/>
<path opacity="0.1" d="M51 4.3075V46.7761" stroke="#FAFBFF" stroke-miterlimit="10" stroke-dasharray="5.77 5.77"/>
</g>
<path d="M27.357 19.3649C28.0979 19.3656 28.8303 19.5265 29.5065 19.837C30.1827 20.1475 30.7875 20.6008 31.2814 21.1671L32.8277 19.7374C31.8379 18.6085 30.5394 17.8118 29.1014 17.4513C27.6636 17.0908 26.1531 17.1832 24.7671 17.7164C23.3812 18.2496 22.1841 19.1989 21.3322 20.4405C20.4802 21.682 20.0129 23.1581 19.9913 24.6761C19.9696 26.1941 20.3946 27.6836 21.2107 28.9502C22.0269 30.2167 23.1964 31.2016 24.5665 31.7762C25.9366 32.3508 27.4438 32.4885 28.8914 32.1713C30.339 31.8541 31.6597 31.0967 32.6813 29.9981L31.1701 28.5262C30.5681 29.1719 29.8195 29.6545 28.9912 29.9309C28.163 30.2073 27.2808 30.269 26.4236 30.1102C25.5664 29.9515 24.761 29.5775 24.0793 29.0215C23.3975 28.4655 22.8607 27.7449 22.5168 26.9241C22.1729 26.1033 22.0327 25.2079 22.1087 24.318C22.1847 23.428 22.4744 22.5713 22.9521 21.8243C23.4299 21.0773 24.0806 20.4633 24.8462 20.0373C25.6118 19.6112 26.4684 19.3864 27.3395 19.3829L27.357 19.3649Z" fill="black"/>
<path d="M20.368 17.5786L18.8424 16.1026C17.6506 17.241 16.7049 18.5942 16.0596 20.0845C15.4143 21.5748 15.0821 23.1728 15.0821 24.7866C15.0821 26.4005 15.4143 27.9985 16.0596 29.4887C16.7049 30.979 17.6506 32.3322 18.8424 33.4707L20.368 31.9946C19.3744 31.0521 18.5855 29.9297 18.047 28.6924C17.5086 27.4551 17.2314 26.1275 17.2314 24.7866C17.2314 23.4457 17.5086 22.1182 18.047 20.8809C18.5855 19.6436 19.3744 18.5211 20.368 17.5786Z" fill="black"/>
<path d="M34.7156 14.7718C32.6354 13.1803 30.1219 12.3237 27.5418 12.327V14.47C29.6707 14.468 31.7451 15.172 33.465 16.4802L34.7156 14.7718Z" fill="black"/>
<path d="M27.5418 35.1323V37.2464C29.9553 37.2491 32.3172 36.5455 34.338 35.2216L33.1509 33.4708C31.481 34.5578 29.5324 35.135 27.5418 35.1323Z" fill="black"/>
<path d="M27.5418 32.5211C25.9069 32.52 24.3117 32.0311 22.9724 31.1204C21.6329 30.2098 20.614 28.9214 20.0533 27.4297L18.1027 28.3095C18.8372 30.162 20.1323 31.7549 21.8172 32.8784C23.5022 34.0019 25.498 34.6033 27.5418 34.6034V32.5211Z" fill="black"/>
<path d="M19.8081 24.4091C19.9347 22.4229 20.8044 20.5597 22.2406 19.1977C23.6768 17.8356 25.5721 17.0767 27.5418 17.0747V14.9699C25.0194 14.9698 22.5935 15.9497 20.7662 17.7067C18.9389 19.4637 17.85 21.8634 17.725 24.4091H19.8081Z" fill="black"/>
<path d="M43.5 21.025L41.325 23.2H39.775V31.825H42.85V34H39.475L37.3 31.825V23.2H34.225L36.4 21.025H37.3V19.2L39.775 16.725V21.025H43.5ZM47.8287 18.9H45.3537V16.425H47.8287V18.9ZM47.8287 34H45.3537V22.925L47.8287 20.425V34ZM60.4658 30.55L56.9908 34H54.9658L51.5158 30.55V20.425L53.9658 22.9V30.15L55.9908 32.1L57.9908 30.15V22.9L60.4658 20.425V30.55ZM72.852 34H66.077L63.927 31.825V23.2L66.077 21.025H70.702L72.852 23.2V27.525L70.702 29.675H66.702L68.902 27.525H70.402V23.2H66.402V31.825H72.852V34ZM93.9346 30.275L90.2596 34H87.8346L84.9846 31.1L82.1596 34H79.7096L76.0346 30.275V16.725H78.5096V29.575L80.7596 31.9H81.4346L83.7346 29.575V16.725H86.2096V29.575L88.5096 31.9H89.2096L91.4596 29.65V16.725H93.9346V30.275ZM106.291 34H103.816V32.15L101.966 34H99.491L97.341 31.825V27.525L99.491 25.35H103.566L101.516 27.5H99.791V31.825H103.816V23.2H97.016L98.866 21.025H104.141L106.291 23.2V34ZM119.091 25.35L116.616 27.825V23.2H112.941V34H110.466V21.025H112.941V22.9L114.741 21.025H116.941L119.091 23.2V25.35ZM130.713 34H123.938L121.788 31.825V23.2L123.938 21.025H128.563L130.713 23.2V27.525L128.563 29.675H124.563L126.763 27.525H128.263V23.2H124.263V31.825H130.713V34Z" fill="black"/>
<path d="M13.1 34H10.65V27.525H4.775V34H2.3V18.9L4.475 16.725H13.1V34ZM12.2 18.9H4.775V27.225L6.65 25.35H10.65V20.45L12.2 18.9Z" fill="black"/>
</svg>
