<svg width="151" height="38" viewBox="0 0 151 38" fill="none" xmlns="http://www.w3.org/2000/svg">
<path fill-rule="evenodd" clip-rule="evenodd" d="M19.6251 0.501483L19.3992 0.484131L19.2372 0.642478L0.824713 18.6425L0.453796 19.0051L0.82978 19.3624L19.2423 36.8624L19.5297 37.1355L19.8611 36.918L42.718 21.918L42.8997 21.7988L42.9365 21.5846L46.1111 3.08458L46.2039 2.54353L45.6566 2.50148L19.6251 0.501483ZM1.89468 18.9949L19.7743 1.5159L45.0326 3.45649L41.9877 21.2012L19.6439 35.8645L1.89468 18.9949ZM21.2324 4.62003L3.7139 19.1L22.1011 32.896L39.6196 18.416L21.2324 4.62003ZM46.1296 25H47.9762L49.4385 20.8807H55.3207L56.7831 25H58.6296L53.2887 10.4546H51.4706L46.1296 25ZM54.7661 19.3182L52.4365 12.7557H52.3228L49.9932 19.3182H54.7661ZM62.4578 24.5029C63.1964 24.9858 64.0771 25.2273 65.0998 25.2273C65.9047 25.2273 66.6102 25.0781 67.2163 24.7798C67.8271 24.4768 68.3171 24.0696 68.6865 23.5583C69.0605 23.0422 69.2949 22.4621 69.3896 21.8182H67.7135C67.6093 22.2159 67.4341 22.5568 67.1879 22.8409C66.9417 23.125 66.641 23.3428 66.2859 23.4943C65.9308 23.6458 65.5354 23.7216 65.0998 23.7216C64.4369 23.7216 63.8593 23.5488 63.3669 23.2031C62.8792 22.8575 62.5004 22.3722 62.2305 21.7472C61.9653 21.1222 61.8328 20.3883 61.8328 19.5455C61.8328 18.7216 61.9677 18.0043 62.2376 17.3935C62.5122 16.7779 62.8934 16.3021 63.3811 15.9659C63.8735 15.625 64.4464 15.4546 65.0998 15.4546C65.8385 15.4546 66.4256 15.6487 66.8612 16.0369C67.3015 16.4205 67.5856 16.8608 67.7135 17.358H69.3896C69.2949 16.6761 69.051 16.0796 68.6581 15.5682C68.2651 15.0568 67.7608 14.6591 67.1453 14.375C66.5297 14.0909 65.8385 13.9489 65.0714 13.9489C64.0866 13.9489 63.2248 14.1904 62.4862 14.6733C61.7523 15.1515 61.1794 15.8168 60.7674 16.669C60.3602 17.5166 60.1566 18.4943 60.1566 19.6023C60.1566 20.6913 60.3555 21.6596 60.7532 22.5071C61.151 23.3547 61.7191 24.0199 62.4578 24.5029ZM76.5842 15.5114V14.0909H74.2546V11.4773H72.5785V14.0909H70.9308V15.5114H72.5785V22.3296C72.5785 22.964 72.7253 23.4896 73.0189 23.9063C73.3171 24.3229 73.6912 24.6331 74.141 24.8367C74.5956 25.0403 75.0596 25.1421 75.5331 25.1421C75.8456 25.1421 76.1036 25.1184 76.3072 25.071C76.5108 25.0284 76.6694 24.9858 76.7831 24.9432L76.4421 23.4375L76.1581 23.4943C76.0397 23.5133 75.8882 23.5227 75.7035 23.5227C75.4573 23.5227 75.2229 23.4849 75.0004 23.4091C74.7826 23.3286 74.6027 23.1724 74.4606 22.9404C74.3233 22.7036 74.2546 22.3485 74.2546 21.875V15.5114H76.5842ZM80.7816 14.0909H79.1055V25H80.7816V14.0909ZM79.1126 11.9389C79.3493 12.1615 79.6311 12.2727 79.9578 12.2727C80.2845 12.2727 80.5638 12.1615 80.7958 11.9389C81.0326 11.7164 81.151 11.4489 81.151 11.1364C81.151 10.8239 81.0326 10.5564 80.7958 10.3338C80.5638 10.1113 80.2845 10 79.9578 10C79.6311 10 79.3493 10.1113 79.1126 10.3338C78.8806 10.5564 78.7646 10.8239 78.7646 11.1364C78.7646 11.4489 78.8806 11.7164 79.1126 11.9389ZM87.0334 25H88.738L92.772 14.0909H90.9539L87.9425 22.7841H87.8289L84.8175 14.0909H82.9993L87.0334 25ZM96.4475 24.5313C97.2098 24.9953 98.1165 25.2273 99.1676 25.2273C99.9063 25.2273 100.572 25.1136 101.163 24.8864C101.755 24.6544 102.252 24.3324 102.655 23.9205C103.057 23.5038 103.344 23.0208 103.514 22.4716L101.895 22.0171C101.753 22.3958 101.552 22.7131 101.291 22.9688C101.031 23.2197 100.721 23.4091 100.361 23.5369C100.006 23.6601 99.608 23.7216 99.1676 23.7216C98.4906 23.7216 97.8963 23.5748 97.385 23.2813C96.8736 22.983 96.4735 22.5497 96.1847 21.9815C95.9271 21.4621 95.7863 20.8394 95.7623 20.1136H103.685V19.4034C103.685 18.3854 103.55 17.5284 103.28 16.8324C103.01 16.1364 102.648 15.5777 102.193 15.1563C101.739 14.7301 101.234 14.4224 100.68 14.233C100.126 14.0436 99.5654 13.9489 98.9972 13.9489C98.0123 13.9489 97.1506 14.1904 96.412 14.6733C95.6781 15.1515 95.1051 15.8191 94.6932 16.6761C94.286 17.5284 94.0824 18.5133 94.0824 19.6307C94.0824 20.7481 94.286 21.7282 94.6932 22.571C95.1051 23.4091 95.6899 24.0625 96.4475 24.5313ZM95.7665 18.6648C95.7985 18.1587 95.926 17.6805 96.1492 17.2301C96.4096 16.7046 96.7813 16.2784 97.2642 15.9517C97.7519 15.6203 98.3296 15.4546 98.9972 15.4546C99.6032 15.4546 100.129 15.5942 100.574 15.8736C101.024 16.1529 101.369 16.5341 101.611 17.0171C101.857 17.5 101.98 18.0493 101.98 18.6648H95.7665ZM104.111 10.4546L108.088 25H109.906L113.117 13.4091H113.23L116.44 25H118.259L122.236 10.4546H120.446L117.406 22.3011H117.264L114.168 10.4546H112.179L109.082 22.3011H108.94L105.901 10.4546H104.111ZM124.516 24.8651C125.079 25.1255 125.706 25.2557 126.398 25.2557C127.032 25.2557 127.57 25.161 128.01 24.9716C128.45 24.7822 128.803 24.5526 129.068 24.2827C129.333 24.0128 129.523 23.7595 129.636 23.5227H129.722V25H131.398V17.8125C131.398 16.946 131.256 16.2547 130.972 15.7387C130.688 15.2226 130.33 14.8367 129.899 14.581C129.473 14.3253 129.03 14.1572 128.571 14.0767C128.117 13.9915 127.714 13.9489 127.364 13.9489C126.814 13.9489 126.256 14.0246 125.688 14.1762C125.124 14.3229 124.603 14.5833 124.125 14.9574C123.652 15.3267 123.273 15.8428 122.989 16.5057L124.58 17.0739C124.764 16.6761 125.084 16.3021 125.538 15.9517C125.993 15.6013 126.62 15.4262 127.42 15.4262C128.192 15.4262 128.768 15.6203 129.146 16.0085C129.53 16.3968 129.722 16.9413 129.722 17.6421V17.6989C129.722 17.9688 129.625 18.1582 129.43 18.2671C129.241 18.376 128.938 18.4541 128.521 18.5014C128.109 18.544 127.572 18.608 126.909 18.6932C126.402 18.7595 125.898 18.8494 125.396 18.9631C124.899 19.072 124.445 19.2377 124.033 19.4602C123.621 19.6828 123.292 19.9905 123.045 20.3835C122.799 20.7718 122.676 21.2784 122.676 21.9034C122.676 22.6136 122.842 23.2197 123.173 23.7216C123.505 24.2188 123.952 24.5999 124.516 24.8651ZM128.33 23.3594C127.875 23.6198 127.316 23.75 126.653 23.75C125.986 23.75 125.434 23.6032 124.999 23.3097C124.568 23.0114 124.352 22.571 124.352 21.9886C124.352 21.5625 124.466 21.2263 124.693 20.9801C124.925 20.7292 125.228 20.5422 125.602 20.419C125.981 20.2912 126.388 20.1989 126.824 20.1421C127.004 20.1184 127.238 20.09 127.527 20.0568C127.821 20.019 128.121 19.9763 128.429 19.929C128.742 19.8769 129.016 19.8177 129.253 19.7514C129.494 19.6804 129.651 19.6023 129.722 19.5171V21.0511C129.722 21.5057 129.603 21.9389 129.367 22.3509C129.135 22.7628 128.789 23.099 128.33 23.3594ZM136.076 14.0909H134.457V25H136.133V18.0966C136.133 17.6042 136.252 17.1662 136.488 16.7827C136.73 16.3944 137.056 16.0914 137.468 15.8736C137.885 15.6511 138.359 15.5398 138.889 15.5398C139.111 15.5398 139.322 15.5564 139.521 15.5895C139.725 15.6179 139.855 15.6392 139.912 15.6534V13.9489C139.817 13.9394 139.677 13.9323 139.493 13.9276C139.308 13.9228 139.154 13.9205 139.031 13.9205C138.378 13.9205 137.79 14.0886 137.27 14.4247C136.749 14.7609 136.389 15.1989 136.19 15.7387H136.076V14.0909ZM143.42 24.5313C144.182 24.9953 145.089 25.2273 146.14 25.2273C146.879 25.2273 147.544 25.1136 148.136 24.8864C148.728 24.6544 149.225 24.3324 149.628 23.9205C150.03 23.5038 150.316 23.0208 150.487 22.4716L148.868 22.0171C148.726 22.3958 148.524 22.7131 148.264 22.9688C148.003 23.2197 147.693 23.4091 147.333 23.5369C146.978 23.6601 146.581 23.7216 146.14 23.7216C145.463 23.7216 144.869 23.5748 144.358 23.2813C143.846 22.983 143.446 22.5497 143.157 21.9815C142.9 21.4621 142.759 20.8394 142.735 20.1136H150.657V19.4034C150.657 18.3854 150.522 17.5284 150.253 16.8324C149.983 16.1364 149.62 15.5777 149.166 15.1563C148.711 14.7301 148.207 14.4224 147.653 14.233C147.099 14.0436 146.538 13.9489 145.97 13.9489C144.985 13.9489 144.123 14.1904 143.385 14.6733C142.651 15.1515 142.078 15.8191 141.666 16.6761C141.259 17.5284 141.055 18.5133 141.055 19.6307C141.055 20.7481 141.259 21.7282 141.666 22.571C142.078 23.4091 142.663 24.0625 143.42 24.5313ZM142.739 18.6648C142.771 18.1587 142.899 17.6805 143.122 17.2301C143.382 16.7046 143.754 16.2784 144.237 15.9517C144.725 15.6203 145.302 15.4546 145.97 15.4546C146.576 15.4546 147.101 15.5942 147.547 15.8736C147.996 16.1529 148.342 16.5341 148.583 17.0171C148.83 17.5 148.953 18.0493 148.953 18.6648H142.739Z" fill="#FFFCFC"/>
</svg>
